<svg xmlns="http://www.w3.org/2000/svg" xmlns:xlink="http://www.w3.org/1999/xlink" width="500" zoomAndPan="magnify" viewBox="0 0 375 374.999991" height="500" preserveAspectRatio="xMidYMid meet" version="1.0"><defs><clipPath id="ad99cee9b9"><path d="M 143 142 L 232 142 L 232 232.742188 L 143 232.742188 Z M 143 142 " clip-rule="nonzero"/></clipPath></defs><rect x="-37.5" width="450" fill="#ffffff" y="-37.499999" height="449.999989" fill-opacity="1"/><rect x="-37.5" width="450" fill="#ffffff" y="-37.499999" height="449.999989" fill-opacity="1"/><g clip-path="url(#ad99cee9b9)"><path fill="#eabf7f" d="M 174.097656 181.304688 L 165.417969 181.285156 C 159.496094 181.273438 153.816406 183.617188 149.625 187.796875 C 145.4375 191.980469 143.082031 197.65625 143.082031 203.574219 C 143.082031 205.480469 143.082031 207.417969 143.082031 209.320312 C 143.082031 221.476562 152.824219 231.390625 164.980469 231.605469 C 187.789062 232.003906 226.25 232.679688 226.25 232.679688 C 228.496094 232.71875 230.542969 231.402344 231.4375 229.34375 C 232.332031 227.285156 231.898438 224.886719 230.339844 223.273438 L 200.550781 192.421875 L 209.632812 192.410156 C 221.933594 192.398438 231.898438 182.425781 231.898438 170.125 C 231.898438 168.300781 231.898438 166.441406 231.898438 164.617188 C 231.898438 158.707031 229.550781 153.039062 225.371094 148.859375 C 221.191406 144.679688 215.519531 142.328125 209.609375 142.328125 C 186.765625 142.328125 148.632812 142.328125 148.632812 142.328125 C 146.390625 142.328125 144.367188 143.679688 143.503906 145.75 C 142.644531 147.824219 143.117188 150.210938 144.699219 151.800781 Z M 162 153.429688 L 209.609375 153.429688 C 212.574219 153.433594 215.421875 154.609375 217.519531 156.707031 C 219.617188 158.804688 220.796875 161.652344 220.796875 164.617188 L 220.796875 170.125 C 220.796875 176.296875 215.792969 181.304688 209.621094 181.308594 C 209.621094 181.308594 189.792969 181.332031 189.792969 181.332031 Z M 165.394531 192.390625 L 185.128906 192.429688 C 185.128906 192.429688 213.042969 221.34375 213.042969 221.34375 C 213.042969 221.34375 165.175781 220.503906 165.175781 220.503906 C 159.074219 220.398438 154.183594 215.421875 154.183594 209.320312 C 154.183594 209.320312 154.183594 203.574219 154.183594 203.574219 C 154.183594 200.605469 155.367188 197.757812 157.46875 195.65625 C 159.570312 193.558594 162.421875 192.382812 165.394531 192.390625 Z M 165.394531 192.390625 " fill-opacity="1" fill-rule="evenodd"/></g></svg>